<mxfile host="Electron" modified="2023-08-03T02:59:06.048Z" agent="Mozilla/5.0 (Windows NT 10.0; Win64; x64) AppleWebKit/537.36 (KHTML, like Gecko) draw.io/21.6.5 Chrome/114.0.5735.243 Electron/25.3.1 Safari/537.36" etag="SoIzM7xu80NakjhiqbKL" version="21.6.5" type="device">
  <diagram name="Page-1" id="c7558073-3199-34d8-9f00-42111426c3f3">
    <mxGraphModel dx="2191" dy="2470" grid="1" gridSize="10" guides="1" tooltips="1" connect="1" arrows="1" fold="0" page="1" pageScale="1" pageWidth="826" pageHeight="1169" background="none" math="0" shadow="0">
      <root>
        <mxCell id="0" />
        <mxCell id="1" parent="0" />
        <mxCell id="MBJoa1zRljwx0NWsrnEt-217" style="edgeStyle=orthogonalEdgeStyle;rounded=0;orthogonalLoop=1;jettySize=auto;html=1;exitX=0.5;exitY=1;exitDx=0;exitDy=0;" parent="1" source="MBJoa1zRljwx0NWsrnEt-150" target="MBJoa1zRljwx0NWsrnEt-215" edge="1">
          <mxGeometry relative="1" as="geometry" />
        </mxCell>
        <mxCell id="MBJoa1zRljwx0NWsrnEt-150" value="&lt;font style=&quot;font-size: 13px;&quot;&gt;mrcoordinator.go&lt;/font&gt;" style="rounded=1;whiteSpace=wrap;html=1;absoluteArcSize=1;arcSize=14;strokeWidth=2;fillColor=#dae8fc;strokeColor=#6c8ebf;" parent="1" vertex="1">
          <mxGeometry x="170" y="150" width="120" height="30" as="geometry" />
        </mxCell>
        <mxCell id="MBJoa1zRljwx0NWsrnEt-153" value="" style="text;html=1;strokeColor=none;fillColor=#D6F8FF;align=center;verticalAlign=middle;whiteSpace=wrap;rounded=0;sketch=1;curveFitting=1;jiggle=2;" parent="1" vertex="1">
          <mxGeometry x="30" y="220" width="60" height="30" as="geometry" />
        </mxCell>
        <mxCell id="MBJoa1zRljwx0NWsrnEt-239" style="edgeStyle=orthogonalEdgeStyle;rounded=0;orthogonalLoop=1;jettySize=auto;html=1;exitX=0.5;exitY=1;exitDx=0;exitDy=0;entryX=0.5;entryY=0;entryDx=0;entryDy=0;" parent="1" source="MBJoa1zRljwx0NWsrnEt-155" target="MBJoa1zRljwx0NWsrnEt-150" edge="1">
          <mxGeometry relative="1" as="geometry" />
        </mxCell>
        <mxCell id="MBJoa1zRljwx0NWsrnEt-155" value="FileName List: Files" style="ellipse;whiteSpace=wrap;html=1;" parent="1" vertex="1">
          <mxGeometry x="250" y="60" width="120" height="30" as="geometry" />
        </mxCell>
        <mxCell id="MBJoa1zRljwx0NWsrnEt-238" style="edgeStyle=orthogonalEdgeStyle;rounded=0;orthogonalLoop=1;jettySize=auto;html=1;exitX=0.5;exitY=1;exitDx=0;exitDy=0;entryX=0.5;entryY=0;entryDx=0;entryDy=0;" parent="1" source="MBJoa1zRljwx0NWsrnEt-156" target="MBJoa1zRljwx0NWsrnEt-150" edge="1">
          <mxGeometry relative="1" as="geometry" />
        </mxCell>
        <mxCell id="MBJoa1zRljwx0NWsrnEt-156" value="Reduce Num : R" style="ellipse;whiteSpace=wrap;html=1;" parent="1" vertex="1">
          <mxGeometry x="70" y="60" width="120" height="30" as="geometry" />
        </mxCell>
        <mxCell id="MBJoa1zRljwx0NWsrnEt-243" style="orthogonalLoop=1;jettySize=auto;html=1;exitX=0.5;exitY=1;exitDx=0;exitDy=0;entryX=0.5;entryY=0;entryDx=0;entryDy=0;edgeStyle=orthogonalEdgeStyle;curved=1;sketch=1;curveFitting=1;jiggle=2;dashed=1;" parent="1" source="MBJoa1zRljwx0NWsrnEt-178" target="MBJoa1zRljwx0NWsrnEt-207" edge="1">
          <mxGeometry relative="1" as="geometry" />
        </mxCell>
        <mxCell id="MBJoa1zRljwx0NWsrnEt-178" value="Coordinator" style="swimlane;fontStyle=1;align=center;verticalAlign=top;childLayout=stackLayout;horizontal=1;startSize=26;horizontalStack=0;resizeParent=1;resizeParentMax=0;resizeLast=0;collapsible=1;marginBottom=0;whiteSpace=wrap;html=1;fillColor=#f8cecc;strokeColor=#b85450;" parent="1" vertex="1">
          <mxGeometry x="450" y="-280" width="160" height="440" as="geometry" />
        </mxCell>
        <mxCell id="MBJoa1zRljwx0NWsrnEt-179" value="+ Workers: sync.Map" style="text;strokeColor=#b85450;fillColor=#f8cecc;align=left;verticalAlign=top;spacingLeft=4;spacingRight=4;overflow=hidden;rotatable=0;points=[[0,0.5],[1,0.5]];portConstraint=eastwest;whiteSpace=wrap;html=1;" parent="MBJoa1zRljwx0NWsrnEt-178" vertex="1">
          <mxGeometry y="26" width="160" height="26" as="geometry" />
        </mxCell>
        <mxCell id="MBJoa1zRljwx0NWsrnEt-183" value="+ Files: []string" style="text;strokeColor=#b85450;fillColor=#f8cecc;align=left;verticalAlign=top;spacingLeft=4;spacingRight=4;overflow=hidden;rotatable=0;points=[[0,0.5],[1,0.5]];portConstraint=eastwest;whiteSpace=wrap;html=1;" parent="MBJoa1zRljwx0NWsrnEt-178" vertex="1">
          <mxGeometry y="52" width="160" height="26" as="geometry" />
        </mxCell>
        <mxCell id="SSt4tG4jwGGr2lJeSwe--1" value="+ MapDone: int32" style="text;strokeColor=#b85450;fillColor=#f8cecc;align=left;verticalAlign=top;spacingLeft=4;spacingRight=4;overflow=hidden;rotatable=0;points=[[0,0.5],[1,0.5]];portConstraint=eastwest;whiteSpace=wrap;html=1;" vertex="1" parent="MBJoa1zRljwx0NWsrnEt-178">
          <mxGeometry y="78" width="160" height="26" as="geometry" />
        </mxCell>
        <mxCell id="SSt4tG4jwGGr2lJeSwe--2" value="+ ReduceDone: int32" style="text;strokeColor=#b85450;fillColor=#f8cecc;align=left;verticalAlign=top;spacingLeft=4;spacingRight=4;overflow=hidden;rotatable=0;points=[[0,0.5],[1,0.5]];portConstraint=eastwest;whiteSpace=wrap;html=1;" vertex="1" parent="MBJoa1zRljwx0NWsrnEt-178">
          <mxGeometry y="104" width="160" height="26" as="geometry" />
        </mxCell>
        <mxCell id="SSt4tG4jwGGr2lJeSwe--3" value="+ ReduceNum: int" style="text;strokeColor=#b85450;fillColor=#f8cecc;align=left;verticalAlign=top;spacingLeft=4;spacingRight=4;overflow=hidden;rotatable=0;points=[[0,0.5],[1,0.5]];portConstraint=eastwest;whiteSpace=wrap;html=1;" vertex="1" parent="MBJoa1zRljwx0NWsrnEt-178">
          <mxGeometry y="130" width="160" height="26" as="geometry" />
        </mxCell>
        <mxCell id="SSt4tG4jwGGr2lJeSwe--4" value="+ IdealWorker: chan string" style="text;strokeColor=#b85450;fillColor=#f8cecc;align=left;verticalAlign=top;spacingLeft=4;spacingRight=4;overflow=hidden;rotatable=0;points=[[0,0.5],[1,0.5]];portConstraint=eastwest;whiteSpace=wrap;html=1;" vertex="1" parent="MBJoa1zRljwx0NWsrnEt-178">
          <mxGeometry y="156" width="160" height="26" as="geometry" />
        </mxCell>
        <mxCell id="SSt4tG4jwGGr2lJeSwe--5" value="+Tasks&lt;span style=&quot;background-color: initial;&quot;&gt;: chan Task&lt;/span&gt;" style="text;strokeColor=#b85450;fillColor=#f8cecc;align=left;verticalAlign=top;spacingLeft=4;spacingRight=4;overflow=hidden;rotatable=0;points=[[0,0.5],[1,0.5]];portConstraint=eastwest;whiteSpace=wrap;html=1;" vertex="1" parent="MBJoa1zRljwx0NWsrnEt-178">
          <mxGeometry y="182" width="160" height="26" as="geometry" />
        </mxCell>
        <mxCell id="MBJoa1zRljwx0NWsrnEt-180" value="" style="line;strokeWidth=1;fillColor=#f8cecc;align=left;verticalAlign=middle;spacingTop=-1;spacingLeft=3;spacingRight=3;rotatable=0;labelPosition=right;points=[];portConstraint=eastwest;strokeColor=#b85450;" parent="MBJoa1zRljwx0NWsrnEt-178" vertex="1">
          <mxGeometry y="208" width="160" height="8" as="geometry" />
        </mxCell>
        <mxCell id="MBJoa1zRljwx0NWsrnEt-181" value="+ server():void" style="text;strokeColor=#b85450;fillColor=#f8cecc;align=left;verticalAlign=top;spacingLeft=4;spacingRight=4;overflow=hidden;rotatable=0;points=[[0,0.5],[1,0.5]];portConstraint=eastwest;whiteSpace=wrap;html=1;" parent="MBJoa1zRljwx0NWsrnEt-178" vertex="1">
          <mxGeometry y="216" width="160" height="26" as="geometry" />
        </mxCell>
        <mxCell id="MBJoa1zRljwx0NWsrnEt-202" value="+ run(): error" style="text;strokeColor=#b85450;fillColor=#f8cecc;align=left;verticalAlign=top;spacingLeft=4;spacingRight=4;overflow=hidden;rotatable=0;points=[[0,0.5],[1,0.5]];portConstraint=eastwest;whiteSpace=wrap;html=1;" parent="MBJoa1zRljwx0NWsrnEt-178" vertex="1">
          <mxGeometry y="242" width="160" height="26" as="geometry" />
        </mxCell>
        <mxCell id="MBJoa1zRljwx0NWsrnEt-201" value="+ Done(): bool" style="text;strokeColor=#b85450;fillColor=#f8cecc;align=left;verticalAlign=top;spacingLeft=4;spacingRight=4;overflow=hidden;rotatable=0;points=[[0,0.5],[1,0.5]];portConstraint=eastwest;whiteSpace=wrap;html=1;" parent="MBJoa1zRljwx0NWsrnEt-178" vertex="1">
          <mxGeometry y="268" width="160" height="26" as="geometry" />
        </mxCell>
        <mxCell id="MBJoa1zRljwx0NWsrnEt-199" value="rpc Register(): error" style="text;strokeColor=#b85450;fillColor=#f8cecc;align=left;verticalAlign=top;spacingLeft=4;spacingRight=4;overflow=hidden;rotatable=0;points=[[0,0.5],[1,0.5]];portConstraint=eastwest;whiteSpace=wrap;html=1;" parent="MBJoa1zRljwx0NWsrnEt-178" vertex="1">
          <mxGeometry y="294" width="160" height="26" as="geometry" />
        </mxCell>
        <mxCell id="SSt4tG4jwGGr2lJeSwe--16" value="rpc TaskOver(): error" style="text;strokeColor=#b85450;fillColor=#f8cecc;align=left;verticalAlign=top;spacingLeft=4;spacingRight=4;overflow=hidden;rotatable=0;points=[[0,0.5],[1,0.5]];portConstraint=eastwest;whiteSpace=wrap;html=1;" vertex="1" parent="MBJoa1zRljwx0NWsrnEt-178">
          <mxGeometry y="320" width="160" height="26" as="geometry" />
        </mxCell>
        <mxCell id="MBJoa1zRljwx0NWsrnEt-191" value="&lt;font style=&quot;font-size: 13px;&quot;&gt;备注：对于每个map任务和reduce任务，它存储状态(空闲、正在进行或已完成)和工作机器的标识(用于非空闲任务)&lt;/font&gt;" style="rounded=0;whiteSpace=wrap;html=1;fillColor=#ffe6cc;strokeColor=#d79b00;align=left;verticalAlign=top;" parent="MBJoa1zRljwx0NWsrnEt-178" vertex="1">
          <mxGeometry y="346" width="160" height="94" as="geometry" />
        </mxCell>
        <mxCell id="SSt4tG4jwGGr2lJeSwe--32" style="edgeStyle=orthogonalEdgeStyle;orthogonalLoop=1;jettySize=auto;html=1;exitX=0.5;exitY=0;exitDx=0;exitDy=0;entryX=0;entryY=0.5;entryDx=0;entryDy=0;curved=1;dashed=1;dashPattern=8 8;" edge="1" parent="1" source="MBJoa1zRljwx0NWsrnEt-192" target="SSt4tG4jwGGr2lJeSwe--25">
          <mxGeometry relative="1" as="geometry" />
        </mxCell>
        <mxCell id="MBJoa1zRljwx0NWsrnEt-192" value="WorkerStatus" style="swimlane;fontStyle=1;align=center;verticalAlign=top;childLayout=stackLayout;horizontal=1;startSize=26;horizontalStack=0;resizeParent=1;resizeParentMax=0;resizeLast=0;collapsible=1;marginBottom=0;whiteSpace=wrap;html=1;fillColor=#f8cecc;strokeColor=#b85450;" parent="1" vertex="1">
          <mxGeometry x="990" y="-190" width="160" height="130" as="geometry" />
        </mxCell>
        <mxCell id="MBJoa1zRljwx0NWsrnEt-193" value="+ ID:int" style="text;strokeColor=#b85450;fillColor=#f8cecc;align=left;verticalAlign=top;spacingLeft=4;spacingRight=4;overflow=hidden;rotatable=0;points=[[0,0.5],[1,0.5]];portConstraint=eastwest;whiteSpace=wrap;html=1;" parent="MBJoa1zRljwx0NWsrnEt-192" vertex="1">
          <mxGeometry y="26" width="160" height="26" as="geometry" />
        </mxCell>
        <mxCell id="MBJoa1zRljwx0NWsrnEt-198" value="+ Status:int&lt;br&gt;&amp;nbsp;0:空闲 1:正在运行" style="text;strokeColor=#b85450;fillColor=#f8cecc;align=left;verticalAlign=top;spacingLeft=4;spacingRight=4;overflow=hidden;rotatable=0;points=[[0,0.5],[1,0.5]];portConstraint=eastwest;whiteSpace=wrap;html=1;" parent="MBJoa1zRljwx0NWsrnEt-192" vertex="1">
          <mxGeometry y="52" width="160" height="38" as="geometry" />
        </mxCell>
        <mxCell id="MBJoa1zRljwx0NWsrnEt-250" value="+ Task: Task&lt;br&gt;分配的任务" style="text;strokeColor=#b85450;fillColor=#f8cecc;align=left;verticalAlign=top;spacingLeft=4;spacingRight=4;overflow=hidden;rotatable=0;points=[[0,0.5],[1,0.5]];portConstraint=eastwest;whiteSpace=wrap;html=1;" parent="MBJoa1zRljwx0NWsrnEt-192" vertex="1">
          <mxGeometry y="90" width="160" height="40" as="geometry" />
        </mxCell>
        <mxCell id="MBJoa1zRljwx0NWsrnEt-205" style="edgeStyle=orthogonalEdgeStyle;rounded=0;orthogonalLoop=1;jettySize=auto;html=1;exitX=1;exitY=0.5;exitDx=0;exitDy=0;exitPerimeter=0;" parent="1" source="MBJoa1zRljwx0NWsrnEt-169" target="MBJoa1zRljwx0NWsrnEt-204" edge="1">
          <mxGeometry relative="1" as="geometry" />
        </mxCell>
        <mxCell id="MBJoa1zRljwx0NWsrnEt-222" value="" style="edgeStyle=orthogonalEdgeStyle;rounded=0;orthogonalLoop=1;jettySize=auto;html=1;" parent="1" source="MBJoa1zRljwx0NWsrnEt-169" target="MBJoa1zRljwx0NWsrnEt-221" edge="1">
          <mxGeometry relative="1" as="geometry" />
        </mxCell>
        <mxCell id="MBJoa1zRljwx0NWsrnEt-169" value="&lt;font style=&quot;font-size: 13px;&quot; face=&quot;Comic Sans MS&quot;&gt;MakeCoordinator&lt;/font&gt;" style="shape=tape;whiteSpace=wrap;html=1;rounded=0;size=0.2;fillColor=#d5e8d4;strokeColor=#82b366;sketch=1;curveFitting=1;jiggle=2;shadow=0;" parent="1" vertex="1">
          <mxGeometry x="175" y="364.76" width="120" height="48" as="geometry" />
        </mxCell>
        <mxCell id="MBJoa1zRljwx0NWsrnEt-208" style="edgeStyle=orthogonalEdgeStyle;rounded=0;orthogonalLoop=1;jettySize=auto;html=1;exitX=1;exitY=0.5;exitDx=0;exitDy=0;exitPerimeter=0;entryX=0;entryY=0.5;entryDx=0;entryDy=0;" parent="1" source="MBJoa1zRljwx0NWsrnEt-204" target="MBJoa1zRljwx0NWsrnEt-207" edge="1">
          <mxGeometry relative="1" as="geometry" />
        </mxCell>
        <mxCell id="MBJoa1zRljwx0NWsrnEt-204" value="New Coordinator" style="shape=tape;whiteSpace=wrap;html=1;rounded=0;size=0.2;fillColor=#d5e8d4;strokeColor=#82b366;sketch=1;curveFitting=1;jiggle=2;shadow=0;" parent="1" vertex="1">
          <mxGeometry x="365" y="364.76" width="120" height="48" as="geometry" />
        </mxCell>
        <mxCell id="MBJoa1zRljwx0NWsrnEt-211" style="edgeStyle=orthogonalEdgeStyle;rounded=0;orthogonalLoop=1;jettySize=auto;html=1;exitX=1;exitY=0.5;exitDx=0;exitDy=0;dashed=1;dashPattern=12 12;" parent="1" source="MBJoa1zRljwx0NWsrnEt-207" target="MBJoa1zRljwx0NWsrnEt-209" edge="1">
          <mxGeometry relative="1" as="geometry" />
        </mxCell>
        <mxCell id="MBJoa1zRljwx0NWsrnEt-214" value="go" style="edgeLabel;html=1;align=center;verticalAlign=middle;resizable=0;points=[];" parent="MBJoa1zRljwx0NWsrnEt-211" vertex="1" connectable="0">
          <mxGeometry x="0.2738" y="-6" relative="1" as="geometry">
            <mxPoint as="offset" />
          </mxGeometry>
        </mxCell>
        <mxCell id="MBJoa1zRljwx0NWsrnEt-212" style="edgeStyle=orthogonalEdgeStyle;rounded=0;orthogonalLoop=1;jettySize=auto;html=1;exitX=1;exitY=0.5;exitDx=0;exitDy=0;entryX=0;entryY=0.5;entryDx=0;entryDy=0;entryPerimeter=0;" parent="1" source="MBJoa1zRljwx0NWsrnEt-207" target="MBJoa1zRljwx0NWsrnEt-210" edge="1">
          <mxGeometry relative="1" as="geometry" />
        </mxCell>
        <mxCell id="MBJoa1zRljwx0NWsrnEt-230" style="edgeStyle=orthogonalEdgeStyle;rounded=0;orthogonalLoop=1;jettySize=auto;html=1;entryX=1;entryY=0.5;entryDx=0;entryDy=0;entryPerimeter=0;" parent="1" source="MBJoa1zRljwx0NWsrnEt-207" target="MBJoa1zRljwx0NWsrnEt-221" edge="1">
          <mxGeometry relative="1" as="geometry">
            <Array as="points">
              <mxPoint x="570" y="517" />
            </Array>
          </mxGeometry>
        </mxCell>
        <mxCell id="MBJoa1zRljwx0NWsrnEt-207" value="Coordinator" style="html=1;whiteSpace=wrap;fillColor=#dae8fc;strokeColor=#6c8ebf;" parent="1" vertex="1">
          <mxGeometry x="525" y="363.76" width="110" height="50" as="geometry" />
        </mxCell>
        <mxCell id="MBJoa1zRljwx0NWsrnEt-209" value="&lt;font style=&quot;font-size: 13px;&quot; face=&quot;Comic Sans MS&quot;&gt;run&lt;/font&gt;" style="shape=tape;whiteSpace=wrap;html=1;rounded=0;size=0.2;fillColor=#d5e8d4;strokeColor=#82b366;sketch=1;curveFitting=1;jiggle=2;shadow=0;" parent="1" vertex="1">
          <mxGeometry x="610" y="550" width="120" height="50" as="geometry" />
        </mxCell>
        <mxCell id="MBJoa1zRljwx0NWsrnEt-241" value="" style="edgeStyle=orthogonalEdgeStyle;rounded=0;orthogonalLoop=1;jettySize=auto;html=1;" parent="1" source="MBJoa1zRljwx0NWsrnEt-210" target="MBJoa1zRljwx0NWsrnEt-240" edge="1">
          <mxGeometry relative="1" as="geometry" />
        </mxCell>
        <mxCell id="MBJoa1zRljwx0NWsrnEt-210" value="&lt;font style=&quot;font-size: 13px;&quot; face=&quot;Comic Sans MS&quot;&gt;server&lt;/font&gt;" style="shape=tape;whiteSpace=wrap;html=1;rounded=0;size=0.2;fillColor=#d5e8d4;strokeColor=#82b366;sketch=1;curveFitting=1;jiggle=2;shadow=0;" parent="1" vertex="1">
          <mxGeometry x="740" y="365" width="120" height="48.76" as="geometry" />
        </mxCell>
        <mxCell id="MBJoa1zRljwx0NWsrnEt-229" style="edgeStyle=orthogonalEdgeStyle;rounded=0;orthogonalLoop=1;jettySize=auto;html=1;entryX=0.466;entryY=0.195;entryDx=0;entryDy=0;entryPerimeter=0;" parent="1" source="MBJoa1zRljwx0NWsrnEt-215" target="MBJoa1zRljwx0NWsrnEt-169" edge="1">
          <mxGeometry relative="1" as="geometry" />
        </mxCell>
        <mxCell id="MBJoa1zRljwx0NWsrnEt-215" value="&lt;font style=&quot;font-size: 13px;&quot; face=&quot;Comic Sans MS&quot;&gt;Main&lt;/font&gt;" style="shape=tape;whiteSpace=wrap;html=1;rounded=0;size=0.2;fillColor=#d5e8d4;strokeColor=#82b366;sketch=1;curveFitting=1;jiggle=2;shadow=0;" parent="1" vertex="1">
          <mxGeometry x="170" y="240" width="120" height="48" as="geometry" />
        </mxCell>
        <mxCell id="MBJoa1zRljwx0NWsrnEt-232" style="edgeStyle=orthogonalEdgeStyle;rounded=0;orthogonalLoop=1;jettySize=auto;html=1;exitX=0.5;exitY=1;exitDx=0;exitDy=0;entryX=0.5;entryY=0;entryDx=0;entryDy=0;" parent="1" source="MBJoa1zRljwx0NWsrnEt-221" target="MBJoa1zRljwx0NWsrnEt-225" edge="1">
          <mxGeometry relative="1" as="geometry" />
        </mxCell>
        <mxCell id="MBJoa1zRljwx0NWsrnEt-221" value="&lt;font style=&quot;font-size: 13px;&quot; face=&quot;Comic Sans MS&quot;&gt;m&lt;/font&gt;" style="html=1;whiteSpace=wrap;fillColor=#dae8fc;strokeColor=#6c8ebf;" parent="1" vertex="1">
          <mxGeometry x="175" y="492.76" width="120" height="48" as="geometry" />
        </mxCell>
        <mxCell id="MBJoa1zRljwx0NWsrnEt-235" style="edgeStyle=orthogonalEdgeStyle;rounded=0;orthogonalLoop=1;jettySize=auto;html=1;" parent="1" source="MBJoa1zRljwx0NWsrnEt-225" edge="1">
          <mxGeometry relative="1" as="geometry">
            <mxPoint x="235" y="560" as="targetPoint" />
            <Array as="points">
              <mxPoint x="380" y="645" />
              <mxPoint x="380" y="560" />
            </Array>
          </mxGeometry>
        </mxCell>
        <mxCell id="MBJoa1zRljwx0NWsrnEt-246" value="F" style="edgeLabel;html=1;align=center;verticalAlign=middle;resizable=0;points=[];" parent="MBJoa1zRljwx0NWsrnEt-235" vertex="1" connectable="0">
          <mxGeometry x="-0.3572" y="-2" relative="1" as="geometry">
            <mxPoint as="offset" />
          </mxGeometry>
        </mxCell>
        <mxCell id="MBJoa1zRljwx0NWsrnEt-247" value="For" style="edgeLabel;html=1;align=center;verticalAlign=middle;resizable=0;points=[];fontStyle=1" parent="MBJoa1zRljwx0NWsrnEt-235" vertex="1" connectable="0">
          <mxGeometry x="-0.3391" y="3" relative="1" as="geometry">
            <mxPoint as="offset" />
          </mxGeometry>
        </mxCell>
        <mxCell id="SSt4tG4jwGGr2lJeSwe--22" style="edgeStyle=orthogonalEdgeStyle;rounded=0;orthogonalLoop=1;jettySize=auto;html=1;exitX=0.5;exitY=1;exitDx=0;exitDy=0;entryX=0.5;entryY=0;entryDx=0;entryDy=0;" edge="1" parent="1" source="MBJoa1zRljwx0NWsrnEt-225" target="MBJoa1zRljwx0NWsrnEt-248">
          <mxGeometry relative="1" as="geometry" />
        </mxCell>
        <mxCell id="MBJoa1zRljwx0NWsrnEt-225" value="if Done() ？" style="rhombus;whiteSpace=wrap;html=1;fillColor=#d5e8d4;strokeColor=#82b366;" parent="1" vertex="1">
          <mxGeometry x="120" y="620" width="230" height="50" as="geometry" />
        </mxCell>
        <mxCell id="MBJoa1zRljwx0NWsrnEt-261" value="" style="rounded=0;orthogonalLoop=1;jettySize=auto;html=1;dashed=1;sketch=1;curveFitting=1;jiggle=2;" parent="1" source="MBJoa1zRljwx0NWsrnEt-240" target="MBJoa1zRljwx0NWsrnEt-260" edge="1">
          <mxGeometry relative="1" as="geometry" />
        </mxCell>
        <mxCell id="SSt4tG4jwGGr2lJeSwe--55" style="edgeStyle=orthogonalEdgeStyle;orthogonalLoop=1;jettySize=auto;html=1;exitX=1;exitY=0.5;exitDx=0;exitDy=0;exitPerimeter=0;entryX=0;entryY=0.5;entryDx=0;entryDy=0;entryPerimeter=0;sketch=1;curveFitting=1;jiggle=2;dashed=1;curved=1;" edge="1" parent="1" source="MBJoa1zRljwx0NWsrnEt-240" target="SSt4tG4jwGGr2lJeSwe--17">
          <mxGeometry relative="1" as="geometry" />
        </mxCell>
        <mxCell id="MBJoa1zRljwx0NWsrnEt-240" value="&lt;font style=&quot;font-size: 13px;&quot; face=&quot;Comic Sans MS&quot;&gt;rpc server&lt;/font&gt;" style="shape=tape;whiteSpace=wrap;html=1;rounded=0;size=0.2;fillColor=#d5e8d4;strokeColor=#82b366;sketch=1;curveFitting=1;jiggle=2;shadow=0;" parent="1" vertex="1">
          <mxGeometry x="740" y="220" width="120" height="45" as="geometry" />
        </mxCell>
        <mxCell id="SSt4tG4jwGGr2lJeSwe--57" value="" style="edgeStyle=orthogonalEdgeStyle;rounded=0;orthogonalLoop=1;jettySize=auto;html=1;" edge="1" parent="1" source="MBJoa1zRljwx0NWsrnEt-244" target="MBJoa1zRljwx0NWsrnEt-209">
          <mxGeometry relative="1" as="geometry" />
        </mxCell>
        <mxCell id="SSt4tG4jwGGr2lJeSwe--58" value="备注" style="edgeLabel;html=1;align=center;verticalAlign=middle;resizable=0;points=[];" vertex="1" connectable="0" parent="SSt4tG4jwGGr2lJeSwe--57">
          <mxGeometry x="0.0067" y="4" relative="1" as="geometry">
            <mxPoint as="offset" />
          </mxGeometry>
        </mxCell>
        <mxCell id="MBJoa1zRljwx0NWsrnEt-244" value="给所有的&amp;nbsp;IdealWorker&amp;nbsp;分配 Task&lt;br&gt;分配之后，等待10s，检查是否完成任务&lt;br&gt;" style="whiteSpace=wrap;html=1;fillColor=#fff2cc;strokeColor=#d6b656;rounded=0;sketch=1;curveFitting=1;jiggle=2;shadow=0;align=left;verticalAlign=top;fontSize=13;" parent="1" vertex="1">
          <mxGeometry x="552.5" y="670" width="235" height="65" as="geometry" />
        </mxCell>
        <mxCell id="MBJoa1zRljwx0NWsrnEt-248" value="" style="ellipse;html=1;shape=endState;fillColor=#000000;strokeColor=#ff0000;" parent="1" vertex="1">
          <mxGeometry x="205" y="710" width="60" height="60" as="geometry" />
        </mxCell>
        <mxCell id="MBJoa1zRljwx0NWsrnEt-254" value="" style="edgeStyle=orthogonalEdgeStyle;rounded=0;orthogonalLoop=1;jettySize=auto;html=1;" parent="1" source="MBJoa1zRljwx0NWsrnEt-251" target="MBJoa1zRljwx0NWsrnEt-253" edge="1">
          <mxGeometry relative="1" as="geometry" />
        </mxCell>
        <mxCell id="MBJoa1zRljwx0NWsrnEt-251" value="&lt;font style=&quot;font-size: 13px;&quot;&gt;mrworker.go&lt;/font&gt;" style="rounded=1;whiteSpace=wrap;html=1;absoluteArcSize=1;arcSize=14;strokeWidth=2;fillColor=#dae8fc;strokeColor=#6c8ebf;" parent="1" vertex="1">
          <mxGeometry x="1290" y="150" width="120" height="30" as="geometry" />
        </mxCell>
        <mxCell id="SSt4tG4jwGGr2lJeSwe--38" value="" style="edgeStyle=orthogonalEdgeStyle;rounded=0;orthogonalLoop=1;jettySize=auto;html=1;" edge="1" parent="1" source="MBJoa1zRljwx0NWsrnEt-252" target="SSt4tG4jwGGr2lJeSwe--37">
          <mxGeometry relative="1" as="geometry" />
        </mxCell>
        <mxCell id="MBJoa1zRljwx0NWsrnEt-252" value="&lt;font style=&quot;font-size: 13px;&quot; face=&quot;Comic Sans MS&quot;&gt;Worker&lt;/font&gt;" style="shape=tape;whiteSpace=wrap;html=1;rounded=0;size=0.2;fillColor=#d5e8d4;strokeColor=#82b366;sketch=1;curveFitting=1;jiggle=2;shadow=0;" parent="1" vertex="1">
          <mxGeometry x="1290" y="338" width="120" height="48" as="geometry" />
        </mxCell>
        <mxCell id="MBJoa1zRljwx0NWsrnEt-255" value="" style="edgeStyle=orthogonalEdgeStyle;rounded=0;orthogonalLoop=1;jettySize=auto;html=1;" parent="1" source="MBJoa1zRljwx0NWsrnEt-253" target="MBJoa1zRljwx0NWsrnEt-252" edge="1">
          <mxGeometry relative="1" as="geometry" />
        </mxCell>
        <mxCell id="MBJoa1zRljwx0NWsrnEt-253" value="&lt;font style=&quot;font-size: 13px;&quot; face=&quot;Comic Sans MS&quot;&gt;Main&lt;/font&gt;" style="shape=tape;whiteSpace=wrap;html=1;rounded=0;size=0.2;fillColor=#d5e8d4;strokeColor=#82b366;sketch=1;curveFitting=1;jiggle=2;shadow=0;" parent="1" vertex="1">
          <mxGeometry x="1290" y="248" width="120" height="48" as="geometry" />
        </mxCell>
        <mxCell id="MBJoa1zRljwx0NWsrnEt-259" style="edgeStyle=orthogonalEdgeStyle;orthogonalLoop=1;jettySize=auto;html=1;exitX=0;exitY=0.5;exitDx=0;exitDy=0;exitPerimeter=0;entryX=1;entryY=0.5;entryDx=0;entryDy=0;entryPerimeter=0;dashed=1;curved=1;" parent="1" source="MBJoa1zRljwx0NWsrnEt-257" target="MBJoa1zRljwx0NWsrnEt-260" edge="1">
          <mxGeometry relative="1" as="geometry" />
        </mxCell>
        <mxCell id="SSt4tG4jwGGr2lJeSwe--42" value="rpc" style="edgeLabel;html=1;align=center;verticalAlign=middle;resizable=0;points=[];" vertex="1" connectable="0" parent="MBJoa1zRljwx0NWsrnEt-259">
          <mxGeometry x="-0.0565" y="1" relative="1" as="geometry">
            <mxPoint as="offset" />
          </mxGeometry>
        </mxCell>
        <mxCell id="SSt4tG4jwGGr2lJeSwe--65" style="edgeStyle=orthogonalEdgeStyle;orthogonalLoop=1;jettySize=auto;html=1;entryX=0;entryY=0.5;entryDx=0;entryDy=0;exitX=0.48;exitY=1.021;exitDx=0;exitDy=0;exitPerimeter=0;curved=1;" edge="1" parent="1" source="MBJoa1zRljwx0NWsrnEt-257" target="SSt4tG4jwGGr2lJeSwe--37">
          <mxGeometry relative="1" as="geometry" />
        </mxCell>
        <mxCell id="SSt4tG4jwGGr2lJeSwe--66" value="更新MyWorker状态" style="edgeLabel;html=1;align=center;verticalAlign=middle;resizable=0;points=[];" vertex="1" connectable="0" parent="SSt4tG4jwGGr2lJeSwe--65">
          <mxGeometry x="-0.3431" y="15" relative="1" as="geometry">
            <mxPoint as="offset" />
          </mxGeometry>
        </mxCell>
        <mxCell id="MBJoa1zRljwx0NWsrnEt-257" value="Register" style="shape=tape;whiteSpace=wrap;html=1;rounded=0;size=0.2;fillColor=#d5e8d4;strokeColor=#82b366;sketch=1;curveFitting=1;jiggle=2;shadow=0;fontFamily=Comic Sans MS;" parent="1" vertex="1">
          <mxGeometry x="1100" y="165" width="120" height="48" as="geometry" />
        </mxCell>
        <mxCell id="MBJoa1zRljwx0NWsrnEt-260" value="&lt;font style=&quot;font-size: 13px;&quot; face=&quot;Comic Sans MS&quot;&gt;Register&lt;/font&gt;" style="shape=tape;whiteSpace=wrap;html=1;rounded=0;size=0.2;fillColor=#d5e8d4;strokeColor=#82b366;sketch=1;curveFitting=1;jiggle=2;shadow=0;" parent="1" vertex="1">
          <mxGeometry x="860" y="120" width="120" height="45" as="geometry" />
        </mxCell>
        <mxCell id="SSt4tG4jwGGr2lJeSwe--14" style="edgeStyle=orthogonalEdgeStyle;orthogonalLoop=1;jettySize=auto;html=1;exitX=0.5;exitY=0;exitDx=0;exitDy=0;entryX=1;entryY=0.5;entryDx=0;entryDy=0;dashed=1;dashPattern=12 12;curved=1;" edge="1" parent="1" source="SSt4tG4jwGGr2lJeSwe--6" target="SSt4tG4jwGGr2lJeSwe--5">
          <mxGeometry relative="1" as="geometry" />
        </mxCell>
        <mxCell id="SSt4tG4jwGGr2lJeSwe--15" style="edgeStyle=orthogonalEdgeStyle;orthogonalLoop=1;jettySize=auto;html=1;exitX=0.5;exitY=0;exitDx=0;exitDy=0;entryX=0;entryY=0.5;entryDx=0;entryDy=0;dashed=1;dashPattern=12 12;curved=1;" edge="1" parent="1" source="SSt4tG4jwGGr2lJeSwe--6" target="MBJoa1zRljwx0NWsrnEt-250">
          <mxGeometry relative="1" as="geometry" />
        </mxCell>
        <mxCell id="SSt4tG4jwGGr2lJeSwe--6" value="Task" style="swimlane;fontStyle=1;align=center;verticalAlign=top;childLayout=stackLayout;horizontal=1;startSize=26;horizontalStack=0;resizeParent=1;resizeParentMax=0;resizeLast=0;collapsible=1;marginBottom=0;whiteSpace=wrap;html=1;fillColor=#f8cecc;strokeColor=#b85450;" vertex="1" parent="1">
          <mxGeometry x="740" y="-100" width="160" height="120" as="geometry" />
        </mxCell>
        <mxCell id="SSt4tG4jwGGr2lJeSwe--7" value="+ ID:int" style="text;strokeColor=#b85450;fillColor=#f8cecc;align=left;verticalAlign=top;spacingLeft=4;spacingRight=4;overflow=hidden;rotatable=0;points=[[0,0.5],[1,0.5]];portConstraint=eastwest;whiteSpace=wrap;html=1;" vertex="1" parent="SSt4tG4jwGGr2lJeSwe--6">
          <mxGeometry y="26" width="160" height="26" as="geometry" />
        </mxCell>
        <mxCell id="SSt4tG4jwGGr2lJeSwe--8" value="+ Type: int&lt;br&gt;0：Map&amp;nbsp; &amp;nbsp; &amp;nbsp; 1：Reduce" style="text;strokeColor=#b85450;fillColor=#f8cecc;align=left;verticalAlign=top;spacingLeft=4;spacingRight=4;overflow=hidden;rotatable=0;points=[[0,0.5],[1,0.5]];portConstraint=eastwest;whiteSpace=wrap;html=1;" vertex="1" parent="SSt4tG4jwGGr2lJeSwe--6">
          <mxGeometry y="52" width="160" height="38" as="geometry" />
        </mxCell>
        <mxCell id="SSt4tG4jwGGr2lJeSwe--9" value="+ TaskNum : int" style="text;strokeColor=#b85450;fillColor=#f8cecc;align=left;verticalAlign=top;spacingLeft=4;spacingRight=4;overflow=hidden;rotatable=0;points=[[0,0.5],[1,0.5]];portConstraint=eastwest;whiteSpace=wrap;html=1;" vertex="1" parent="SSt4tG4jwGGr2lJeSwe--6">
          <mxGeometry y="90" width="160" height="30" as="geometry" />
        </mxCell>
        <mxCell id="SSt4tG4jwGGr2lJeSwe--17" value="TaskOver" style="shape=tape;whiteSpace=wrap;html=1;rounded=0;size=0.2;fillColor=#d5e8d4;strokeColor=#82b366;sketch=1;curveFitting=1;jiggle=2;shadow=0;fontFamily=Comic Sans MS;" vertex="1" parent="1">
          <mxGeometry x="900" y="288" width="120" height="45" as="geometry" />
        </mxCell>
        <mxCell id="SSt4tG4jwGGr2lJeSwe--23" value="MyWorker" style="swimlane;fontStyle=1;align=center;verticalAlign=top;childLayout=stackLayout;horizontal=1;startSize=26;horizontalStack=0;resizeParent=1;resizeParentMax=0;resizeLast=0;collapsible=1;marginBottom=0;whiteSpace=wrap;html=1;fillColor=#f8cecc;strokeColor=#b85450;" vertex="1" parent="1">
          <mxGeometry x="1245" y="-220" width="160" height="260" as="geometry" />
        </mxCell>
        <mxCell id="SSt4tG4jwGGr2lJeSwe--24" value="+ SliceSize:int" style="text;strokeColor=#b85450;fillColor=#f8cecc;align=left;verticalAlign=top;spacingLeft=4;spacingRight=4;overflow=hidden;rotatable=0;points=[[0,0.5],[1,0.5]];portConstraint=eastwest;whiteSpace=wrap;html=1;" vertex="1" parent="SSt4tG4jwGGr2lJeSwe--23">
          <mxGeometry y="26" width="160" height="26" as="geometry" />
        </mxCell>
        <mxCell id="SSt4tG4jwGGr2lJeSwe--29" value="+ ReduceN:int" style="text;strokeColor=#b85450;fillColor=#f8cecc;align=left;verticalAlign=top;spacingLeft=4;spacingRight=4;overflow=hidden;rotatable=0;points=[[0,0.5],[1,0.5]];portConstraint=eastwest;whiteSpace=wrap;html=1;" vertex="1" parent="SSt4tG4jwGGr2lJeSwe--23">
          <mxGeometry y="52" width="160" height="26" as="geometry" />
        </mxCell>
        <mxCell id="SSt4tG4jwGGr2lJeSwe--25" value="+ Status:WorkerStatus" style="text;strokeColor=#b85450;fillColor=#f8cecc;align=left;verticalAlign=top;spacingLeft=4;spacingRight=4;overflow=hidden;rotatable=0;points=[[0,0.5],[1,0.5]];portConstraint=eastwest;whiteSpace=wrap;html=1;" vertex="1" parent="SSt4tG4jwGGr2lJeSwe--23">
          <mxGeometry y="78" width="160" height="32" as="geometry" />
        </mxCell>
        <mxCell id="SSt4tG4jwGGr2lJeSwe--26" value="+ TaskList: chan Task" style="text;strokeColor=#b85450;fillColor=#f8cecc;align=left;verticalAlign=top;spacingLeft=4;spacingRight=4;overflow=hidden;rotatable=0;points=[[0,0.5],[1,0.5]];portConstraint=eastwest;whiteSpace=wrap;html=1;" vertex="1" parent="SSt4tG4jwGGr2lJeSwe--23">
          <mxGeometry y="110" width="160" height="30" as="geometry" />
        </mxCell>
        <mxCell id="SSt4tG4jwGGr2lJeSwe--30" value="+&amp;nbsp;mapFunc: mapf&amp;nbsp; &amp;nbsp;" style="text;strokeColor=#b85450;fillColor=#f8cecc;align=left;verticalAlign=top;spacingLeft=4;spacingRight=4;overflow=hidden;rotatable=0;points=[[0,0.5],[1,0.5]];portConstraint=eastwest;whiteSpace=wrap;html=1;" vertex="1" parent="SSt4tG4jwGGr2lJeSwe--23">
          <mxGeometry y="140" width="160" height="30" as="geometry" />
        </mxCell>
        <mxCell id="SSt4tG4jwGGr2lJeSwe--31" value="+ reduceFunc: reducef&amp;nbsp; &amp;nbsp;" style="text;strokeColor=#b85450;fillColor=#f8cecc;align=left;verticalAlign=top;spacingLeft=4;spacingRight=4;overflow=hidden;rotatable=0;points=[[0,0.5],[1,0.5]];portConstraint=eastwest;whiteSpace=wrap;html=1;" vertex="1" parent="SSt4tG4jwGGr2lJeSwe--23">
          <mxGeometry y="170" width="160" height="30" as="geometry" />
        </mxCell>
        <mxCell id="SSt4tG4jwGGr2lJeSwe--27" value="" style="line;strokeWidth=1;fillColor=#f8cecc;align=left;verticalAlign=middle;spacingTop=-1;spacingLeft=3;spacingRight=3;rotatable=0;labelPosition=right;points=[];portConstraint=eastwest;strokeColor=#b85450;" vertex="1" parent="SSt4tG4jwGGr2lJeSwe--23">
          <mxGeometry y="200" width="160" height="8" as="geometry" />
        </mxCell>
        <mxCell id="SSt4tG4jwGGr2lJeSwe--28" value="+ Register(): void" style="text;strokeColor=#b85450;fillColor=#f8cecc;align=left;verticalAlign=top;spacingLeft=4;spacingRight=4;overflow=hidden;rotatable=0;points=[[0,0.5],[1,0.5]];portConstraint=eastwest;whiteSpace=wrap;html=1;" vertex="1" parent="SSt4tG4jwGGr2lJeSwe--23">
          <mxGeometry y="208" width="160" height="26" as="geometry" />
        </mxCell>
        <mxCell id="SSt4tG4jwGGr2lJeSwe--35" value="+ DoTask(Task): error" style="text;strokeColor=#b85450;fillColor=#f8cecc;align=left;verticalAlign=top;spacingLeft=4;spacingRight=4;overflow=hidden;rotatable=0;points=[[0,0.5],[1,0.5]];portConstraint=eastwest;whiteSpace=wrap;html=1;" vertex="1" parent="SSt4tG4jwGGr2lJeSwe--23">
          <mxGeometry y="234" width="160" height="26" as="geometry" />
        </mxCell>
        <mxCell id="SSt4tG4jwGGr2lJeSwe--40" style="edgeStyle=orthogonalEdgeStyle;orthogonalLoop=1;jettySize=auto;html=1;entryX=1;entryY=0.5;entryDx=0;entryDy=0;entryPerimeter=0;curved=1;dashed=1;dashPattern=12 12;" edge="1" parent="1" source="SSt4tG4jwGGr2lJeSwe--37" target="MBJoa1zRljwx0NWsrnEt-257">
          <mxGeometry relative="1" as="geometry" />
        </mxCell>
        <mxCell id="SSt4tG4jwGGr2lJeSwe--41" value="每1s请求一次" style="edgeLabel;html=1;align=center;verticalAlign=middle;resizable=0;points=[];" vertex="1" connectable="0" parent="SSt4tG4jwGGr2lJeSwe--40">
          <mxGeometry x="0.2104" y="2" relative="1" as="geometry">
            <mxPoint as="offset" />
          </mxGeometry>
        </mxCell>
        <mxCell id="SSt4tG4jwGGr2lJeSwe--48" value="" style="edgeStyle=orthogonalEdgeStyle;rounded=0;orthogonalLoop=1;jettySize=auto;html=1;" edge="1" parent="1" source="SSt4tG4jwGGr2lJeSwe--37" target="SSt4tG4jwGGr2lJeSwe--46">
          <mxGeometry relative="1" as="geometry" />
        </mxCell>
        <mxCell id="SSt4tG4jwGGr2lJeSwe--37" value="MyWorker" style="html=1;whiteSpace=wrap;fillColor=#dae8fc;strokeColor=#6c8ebf;fontFamily=Comic Sans MS;" vertex="1" parent="1">
          <mxGeometry x="1295" y="420" width="110" height="50" as="geometry" />
        </mxCell>
        <mxCell id="SSt4tG4jwGGr2lJeSwe--50" style="edgeStyle=orthogonalEdgeStyle;rounded=0;orthogonalLoop=1;jettySize=auto;html=1;exitX=1;exitY=0.5;exitDx=0;exitDy=0;exitPerimeter=0;entryX=1;entryY=0.5;entryDx=0;entryDy=0;" edge="1" parent="1" source="SSt4tG4jwGGr2lJeSwe--43" target="SSt4tG4jwGGr2lJeSwe--46">
          <mxGeometry relative="1" as="geometry" />
        </mxCell>
        <mxCell id="SSt4tG4jwGGr2lJeSwe--54" style="edgeStyle=orthogonalEdgeStyle;orthogonalLoop=1;jettySize=auto;html=1;entryX=1;entryY=0.5;entryDx=0;entryDy=0;entryPerimeter=0;dashed=1;curved=1;" edge="1" parent="1" source="SSt4tG4jwGGr2lJeSwe--43" target="SSt4tG4jwGGr2lJeSwe--17">
          <mxGeometry relative="1" as="geometry" />
        </mxCell>
        <mxCell id="SSt4tG4jwGGr2lJeSwe--56" value="rpc" style="edgeLabel;html=1;align=center;verticalAlign=middle;resizable=0;points=[];" vertex="1" connectable="0" parent="SSt4tG4jwGGr2lJeSwe--54">
          <mxGeometry x="-0.0968" y="1" relative="1" as="geometry">
            <mxPoint as="offset" />
          </mxGeometry>
        </mxCell>
        <mxCell id="SSt4tG4jwGGr2lJeSwe--43" value="&lt;font style=&quot;font-size: 13px;&quot; face=&quot;Comic Sans MS&quot;&gt;DoTask&lt;/font&gt;" style="shape=tape;whiteSpace=wrap;html=1;rounded=0;size=0.2;fillColor=#d5e8d4;strokeColor=#82b366;sketch=1;curveFitting=1;jiggle=2;shadow=0;" vertex="1" parent="1">
          <mxGeometry x="1290" y="610.76" width="120" height="48" as="geometry" />
        </mxCell>
        <mxCell id="SSt4tG4jwGGr2lJeSwe--49" value="" style="edgeStyle=orthogonalEdgeStyle;rounded=0;orthogonalLoop=1;jettySize=auto;html=1;" edge="1" parent="1" source="SSt4tG4jwGGr2lJeSwe--46" target="SSt4tG4jwGGr2lJeSwe--43">
          <mxGeometry relative="1" as="geometry" />
        </mxCell>
        <mxCell id="SSt4tG4jwGGr2lJeSwe--52" value="Task" style="edgeLabel;html=1;align=center;verticalAlign=middle;resizable=0;points=[];" vertex="1" connectable="0" parent="SSt4tG4jwGGr2lJeSwe--49">
          <mxGeometry x="-0.6344" y="3" relative="1" as="geometry">
            <mxPoint as="offset" />
          </mxGeometry>
        </mxCell>
        <mxCell id="SSt4tG4jwGGr2lJeSwe--46" value="TaskList" style="rhombus;whiteSpace=wrap;html=1;fillColor=#d5e8d4;strokeColor=#82b366;rounded=0;sketch=1;curveFitting=1;jiggle=2;shadow=0;" vertex="1" parent="1">
          <mxGeometry x="1310" y="510" width="80" height="43.24" as="geometry" />
        </mxCell>
        <mxCell id="SSt4tG4jwGGr2lJeSwe--60" value="" style="edgeStyle=orthogonalEdgeStyle;rounded=0;orthogonalLoop=1;jettySize=auto;html=1;entryX=0.47;entryY=0.103;entryDx=0;entryDy=0;entryPerimeter=0;" edge="1" parent="1" source="SSt4tG4jwGGr2lJeSwe--59" target="MBJoa1zRljwx0NWsrnEt-260">
          <mxGeometry relative="1" as="geometry" />
        </mxCell>
        <mxCell id="SSt4tG4jwGGr2lJeSwe--61" value="备注" style="edgeLabel;html=1;align=center;verticalAlign=middle;resizable=0;points=[];" vertex="1" connectable="0" parent="SSt4tG4jwGGr2lJeSwe--60">
          <mxGeometry x="-0.3459" y="-1" relative="1" as="geometry">
            <mxPoint as="offset" />
          </mxGeometry>
        </mxCell>
        <mxCell id="SSt4tG4jwGGr2lJeSwe--59" value="负责分配任务" style="whiteSpace=wrap;html=1;fillColor=#fff2cc;strokeColor=#d6b656;rounded=0;sketch=1;curveFitting=1;jiggle=2;shadow=0;align=left;verticalAlign=top;fontSize=13;" vertex="1" parent="1">
          <mxGeometry x="860" y="50" width="117.5" height="30" as="geometry" />
        </mxCell>
      </root>
    </mxGraphModel>
  </diagram>
</mxfile>
